<svg width="23" height="24" viewBox="0 0 23 24" fill="none" xmlns="http://www.w3.org/2000/svg">
<g clip-path="url(#clip0_64_6705)">
<path d="M20.1289 8.17188V20.6066C20.1298 20.7323 20.1059 20.8569 20.0586 20.9733C20.0113 21.0898 19.9416 21.1958 19.8533 21.2853C19.7651 21.3748 19.6601 21.446 19.5443 21.4949C19.4285 21.5438 19.3043 21.5694 19.1786 21.5703H3.85268C3.6008 21.5703 3.35922 21.4703 3.18103 21.2923C3.00283 21.1143 2.9026 20.8728 2.90234 20.6209V3.37906C2.90234 2.86514 3.33205 2.42969 3.86129 2.42969H14.3838L20.1289 8.17188ZM18.2148 9.12891H13.4297V4.34375H4.81641V19.6562H18.2148V9.12891Z" fill="#002162"/>
</g>
<defs>
<clipPath id="clip0_64_6705">
<rect width="22.9688" height="22.9688" fill="white" transform="translate(0.03125 0.515625)"/>
</clipPath>
</defs>
</svg>
