<svg width="17" height="20" viewBox="0 0 17 20" fill="none" xmlns="http://www.w3.org/2000/svg">
<path d="M7.95312 16H9.95312V13H12.9531V11H9.95312V8H7.95312V11H4.95312V13H7.95312V16ZM2.95312 20C2.40313 20 1.93246 19.8043 1.54112 19.413C1.14979 19.0217 0.953792 18.5507 0.953125 18V2C0.953125 1.45 1.14912 0.979333 1.54112 0.588C1.93312 0.196667 2.40379 0.000666667 2.95312 0H10.9531L16.9531 6V18C16.9531 18.55 16.7575 19.021 16.3661 19.413C15.9748 19.805 15.5038 20.0007 14.9531 20H2.95312ZM9.95312 7V2H2.95312V18H14.9531V7H9.95312Z" fill="#002162"/>
</svg>
